                      http://www.imdb.com/title/tt0120338/

Plot:
A seventeen-year-old aristocrat, expecting to be married to a rich claimant by her mother, falls in love with a kind but poor artist aboard the luxurious, ill-fated R.M.S. Titanic.


Info:


General
Unique ID : 239090390296424254288185458797837751076 (0xB3DF225B808AADBF82C87A8AE0D71324)
Complete name : Titanic (1997) BRrip [1080p] Dual audio (5.1) {HINDI+ENGLISH}~SaNRiM~.mkv
Format : Matroska
Format version : Version 4 / Version 2
File size : 3.81 GiB
Duration : 3h 14mn
Overall bit rate : 2 796 Kbps
Encoded date : UTC 2013-06-16 04:14:44
Writing application : mkvmerge v6.2.0 ('Promised Land') built on Apr 28 2013 12:22:01
Writing library : libebml v1.3.0 + libmatroska v1.4.0


Video
ID : 1
Format : AVC
Format/Info : Advanced Video Codec
Format profile : High@L4.0
Format settings, CABAC : Yes
Format settings, ReFrames : 4 frames
Codec ID : V_MPEG4/ISO/AVC
Duration : 3h 14mn
Bit rate : 1 699 Kbps
Width : 1 920 pixels
Height : 816 pixels
Display aspect ratio : 2.35:1
Frame rate mode : Constant
Frame rate : 23.976 fps
Color space : YUV
Chroma subsampling : 4:2:0
Bit depth : 8 bits
Scan type : Progressive
Bits/(Pixel*Frame) : 0.045
Stream size : 2.25 GiB (59%)
Title : ~SaNRiM~
Writing library : x264 core 98 r1649 20cbe10
Encoding settings : cabac=1 / ref=3 / deblock=1:0:0 / analyse=0x3:0x113 / me=hex / subme=7 / psy=1 / psy_rd=1.00:0.00 / mixed_ref=1 / me_range=16 / chroma_me=1 / trellis=1 / 8x8dct=1 / cqm=0 / deadzone=21,11 / fast_pskip=1 / chroma_qp_offset=-2 / threads=12 / sliced_threads=0 / nr=0 / decimate=1 / interlaced=0 / constrained_intra=0 / bframes=3 / b_pyramid=2 / b_adapt=1 / b_bias=0 / direct=1 / weightb=1 / weightp=2 / keyint=250 / keyint_min=25 / scenecut=40 / intra_refresh=0 / rc_lookahead=40 / rc=2pass / mbtree=1 / bitrate=1699 / ratetol=1.0 / qcomp=0.60 / qpmin=10 / qpmax=51 / qpstep=4 / cplxblur=20.0 / qblur=0.5 / ip_ratio=1.40 / aq=1:1.00
Language : English
Default : No
Forced : No


Audio #1
ID : 2
Format : AC-3
Format/Info : Audio Coding 3
Mode extension : CM (complete main)
Format settings, Endianness : Big
Codec ID : A_AC3
Duration : 3h 14mn
Bit rate mode : Constant
Bit rate : 448 Kbps
Channel(s) : 6 channels
Channel positions : Front: L C R, Side: L R, LFE
Sampling rate : 48.0 KHz
Bit depth : 16 bits
Compression mode : Lossy
Stream size : 625 MiB (16%)
Title : ~SaNRiM~
Language : Hindi
Default : Yes
Forced : Yes


Audio #2
ID : 3
Format : AC-3
Format/Info : Audio Coding 3
Mode extension : CM (complete main)
Format settings, Endianness : Big
Codec ID : A_AC3
Duration : 3h 14mn
Bit rate mode : Constant
Bit rate : 640 Kbps
Channel(s) : 6 channels
Channel positions : Front: L C R, Side: L R, LFE
Sampling rate : 48.0 KHz
Bit depth : 16 bits
Compression mode : Lossy
Stream size : 892 MiB (23%)
Title : ~SaNRiM~
Language : English
Default : No
Forced : No

*NO SAMPLE INCLUDED

Screen shots: 
http://cdn.piczend.com/images/jlvRCs2E/1371663941_vlcsnap-2013-06-19-23h08m45s67.png 
http://cdn.piczend.com/images/SiYq1U6A/1371663928_vlcsnap-2013-06-19-23h08m50s120.png 
http://cdn.piczend.com/images/oGRA2gvC/1371663948_vlcsnap-2013-06-19-23h08m55s167.png 
http://cdn.piczend.com/images/1mn7fbQN/1371663958_vlcsnap-2013-06-19-23h09m06s24.png 
http://cdn.piczend.com/images/1sDYv65S/1371663947_vlcsnap-2013-06-19-23h09m14s105.png 
http://cdn.piczend.com/images/1xBD6FtO/1371663894_vlcsnap-2013-06-19-23h09m17s133.png 
http://cdn.piczend.com/images/Pu54biXn/1371664018_vlcsnap-2013-06-19-23h09m22s182.png 
http://cdn.piczend.com/images/5jz9AoRa/1371663991_vlcsnap-2013-06-19-23h09m25s213.png 
http://cdn.piczend.com/images/z5GHwnnQ/1371663954_vlcsnap-2013-06-19-23h09m29s252.png 
http://cdn.piczend.com/images/j96Tmmrc/1371663918_vlcsnap-2013-06-19-23h09m35s62.png 
http://cdn.piczend.com/images/F2Qjf2N4/1371663977_vlcsnap-2013-06-19-23h09m52s232.png 
http://cdn.piczend.com/images/WPnzyOwq/1371663934_vlcsnap-2013-06-19-23h10m02s74.png 
http://cdn.piczend.com/images/Iad6FkYz/1371664100_vlcsnap-2013-06-19-23h10m08s131.png 
http://cdn.piczend.com/images/YOoB1Wfq/1371664045_vlcsnap-2013-06-19-23h10m12s177.png 
http://cdn.piczend.com/images/CB1mq1az/1371664090_vlcsnap-2013-06-19-23h10m40s200.png 
http://cdn.piczend.com/images/vkiD30Wa/1371664091_vlcsnap-2013-06-19-23h10m45s245.png 
http://cdn.piczend.com/images/gV6AAwfF/1371664078_vlcsnap-2013-06-19-23h10m49s29.png 
http://cdn.piczend.com/images/peXxmkTa/1371664063_vlcsnap-2013-06-19-23h10m52s67.png 
http://cdn.piczend.com/images/qDJRs9Hj/1371664098_vlcsnap-2013-06-19-23h10m56s100.png 
http://cdn.piczend.com/images/o5PVCOBp/1371663974_vlcsnap-2013-06-19-23h11m02s161.png 
http://cdn.piczend.com/images/Mfw6iqrB/1371664092_vlcsnap-2013-06-19-23h11m05s198.png 
http://cdn.piczend.com/images/HjRL6Mir/1371664049_vlcsnap-2013-06-19-23h11m11s248.png 
http://cdn.piczend.com/images/m2dJuOY4/1371663969_vlcsnap-2013-06-19-23h11m27s153.png 
http://cdn.piczend.com/images/1iuEDQbE/1371664016_vlcsnap-2013-06-19-23h11m34s221.png 
http://cdn.piczend.com/images/DeSmdPIz/1371664084_vlcsnap-2013-06-19-23h11m37s2.png 
http://cdn.piczend.com/images/7nJbcDva/1371664042_vlcsnap-2013-06-19-23h11m46s85.png 
http://cdn.piczend.com/images/wf2VjRcp/1371664088_vlcsnap-2013-06-19-23h11m53s158.png 
http://cdn.piczend.com/images/dU7bBo2J/1371664062_vlcsnap-2013-06-19-23h11m57s203.png 
http://cdn.piczend.com/images/LE4L0uBW/1371664026_vlcsnap-2013-06-19-23h12m03s4.png 
http://cdn.piczend.com/images/o4uNXHmT/1371664007_vlcsnap-2013-06-19-23h12m09s62.png 
http://cdn.piczend.com/images/Kkp6rzuq/1371664091_vlcsnap-2013-06-19-23h12m20s173.png


                     If you like my work please comment
                          Any request? Just PM me
                      Please seed long after download
                        Thank you & enjoy the best
                                ~SaNRiM~